<svg xmlns="http://www.w3.org/2000/svg" viewBox="0 0 100 100">
  <rect width="100" height="100" rx="22" fill="#0f172a"/>
  <!-- Brain outline left -->
  <path d="M28 42 C22 38 20 30 26 26 C28 18 38 16 42 22 C44 18 52 16 56 22 C60 20 64 26 62 32" fill="none" stroke="#6366f1" stroke-width="3.5" stroke-linecap="round"/>
  <!-- Brain outline right -->
  <path d="M62 32 C68 34 70 42 66 46 C70 50 68 58 62 58 C60 64 52 66 48 60 C44 66 36 64 34 58 C28 58 24 50 28 44 C24 40 26 34 28 42" fill="none" stroke="#6366f1" stroke-width="3.5" stroke-linecap="round"/>
  <!-- Brain center line -->
  <line x1="45" y1="22" x2="45" y2="58" stroke="#6366f1" stroke-width="2" stroke-dasharray="3 3"/>
  <!-- Airplane -->
  <g transform="translate(50, 74) rotate(-45)">
    <path d="M0,-10 L3,-2 L10,0 L3,2 L0,10 L-3,2 L-10,0 L-3,-2 Z" fill="#6366f1" opacity="0.7" transform="scale(1.2)"/>
  </g>
  <!-- Stars/dots -->
  <circle cx="32" cy="70" r="2" fill="#6366f1" opacity="0.5"/>
  <circle cx="38" cy="76" r="1.5" fill="#6366f1" opacity="0.4"/>
  <circle cx="65" cy="72" r="2" fill="#6366f1" opacity="0.5"/>
</svg>
